# xmcd
#
# Track frame offsets: 
#        150
#        23714
#        36269
#        61186
#        80658
#        84879
#        98528
#        114748
#        117757
#        134117
#        147752
#        177611
#        205586
#
# Disc length: 3070 seconds
#
# Revision: 0
# Processed by: cddbd v1.5.2PL0 Copyright (c) Steve Scherf et al.
# Submitted via: ExactAudioCopy v0.99pb4
#
DISCID=ac0bfc0d
DTITLE=The Lucky Strikes - The Chronicles of Solomon Quick
DYEAR=1900
DGENRE=Americana
TTITLE0=The Chronocles of Solomon Quick
TTITLE1=Morning Light
TTITLE2=Second Act (funeral)
TTITLE3=Going out West
TTITLE4=When the Lemon Juice Runs Down Your Leg
TTITLE5=Eyes on You
TTITLE6=One Eyed Sam
TTITLE7=Franklin's
TTITLE8=Greenwood Mississippi
TTITLE9=Sunlight Blues
TTITLE10=Revelations
TTITLE11=One Way Down
TTITLE12=Sweet December
EXTD=
EXTT0=
EXTT1=
EXTT2=
EXTT3=
EXTT4=
EXTT5=
EXTT6=
EXTT7=
EXTT8=
EXTT9=
EXTT10=
EXTT11=
EXTT12=
PLAYORDER=
